<svg width="632" height="371" viewBox="0 0 632 371" fill="none" xmlns="http://www.w3.org/2000/svg">
<path d="M45.9762 0H282C301.882 0 318 16.1178 318 36V335C318 354.882 301.882 371 282 371H164.382C149.616 371 136.347 361.983 130.911 348.255L12.5051 49.2547C3.14739 25.6244 20.5604 0 45.9762 0Z" fill="#00ADB5"/>
<path d="M586.334 58H354C334.118 58 318 74.1178 318 94V335C318 354.882 334.118 371 354 371H473.212C487.169 371 499.869 362.932 505.8 350.297L618.922 109.297C630.128 85.4226 612.707 58 586.334 58Z" fill="#2D333C"/>
</svg>
