<svg width="1440" height="77" viewBox="0 0 1440 77" fill="none" xmlns="http://www.w3.org/2000/svg">
<rect width="1440" height="77" fill="#00ADB5"/>
<path d="M16.024 47L10.528 30.2H14.56L19.336 45.08H17.32L22.312 30.2H25.912L30.712 45.08H28.768L33.664 30.2H37.384L31.888 47H27.712L23.464 33.944H24.568L20.2 47H16.024ZM44.7376 47.192C43.2656 47.192 41.9696 46.904 40.8496 46.328C39.7456 45.752 38.8896 44.968 38.2816 43.976C37.6736 42.968 37.3696 41.824 37.3696 40.544C37.3696 39.248 37.6656 38.104 38.2576 37.112C38.8656 36.104 39.6896 35.32 40.7296 34.76C41.7696 34.184 42.9456 33.896 44.2576 33.896C45.5216 33.896 46.6576 34.168 47.6656 34.712C48.6896 35.24 49.4976 36.008 50.0896 37.016C50.6816 38.008 50.9776 39.2 50.9776 40.592C50.9776 40.736 50.9696 40.904 50.9536 41.096C50.9376 41.272 50.9216 41.44 50.9056 41.6H40.4176V39.416H48.9376L47.4976 40.064C47.4976 39.392 47.3616 38.808 47.0896 38.312C46.8176 37.816 46.4416 37.432 45.9616 37.16C45.4816 36.872 44.9216 36.728 44.2816 36.728C43.6416 36.728 43.0736 36.872 42.5776 37.16C42.0976 37.432 41.7216 37.824 41.4496 38.336C41.1776 38.832 41.0416 39.424 41.0416 40.112V40.688C41.0416 41.392 41.1936 42.016 41.4976 42.56C41.8176 43.088 42.2576 43.496 42.8176 43.784C43.3936 44.056 44.0656 44.192 44.8336 44.192C45.5216 44.192 46.1216 44.088 46.6336 43.88C47.1616 43.672 47.6416 43.36 48.0736 42.944L50.0656 45.104C49.4736 45.776 48.7296 46.296 47.8336 46.664C46.9376 47.016 45.9056 47.192 44.7376 47.192ZM61.1022 47.192C59.9662 47.192 58.9902 46.952 58.1742 46.472C57.3582 45.992 56.7342 45.264 56.3022 44.288C55.8702 43.296 55.6542 42.048 55.6542 40.544C55.6542 39.024 55.8782 37.776 56.3262 36.8C56.7902 35.824 57.4302 35.096 58.2462 34.616C59.0622 34.136 60.0142 33.896 61.1022 33.896C62.3182 33.896 63.4062 34.168 64.3662 34.712C65.3422 35.256 66.1102 36.024 66.6702 37.016C67.2462 38.008 67.5342 39.184 67.5342 40.544C67.5342 41.888 67.2462 43.056 66.6702 44.048C66.1102 45.04 65.3422 45.816 64.3662 46.376C63.4062 46.92 62.3182 47.192 61.1022 47.192ZM53.4702 47V29.192H57.2142V36.704L56.9742 40.52L57.0462 44.36V47H53.4702ZM60.4542 44.12C61.0782 44.12 61.6302 43.976 62.1102 43.688C62.6062 43.4 62.9982 42.992 63.2862 42.464C63.5902 41.92 63.7422 41.28 63.7422 40.544C63.7422 39.792 63.5902 39.152 63.2862 38.624C62.9982 38.096 62.6062 37.688 62.1102 37.4C61.6302 37.112 61.0782 36.968 60.4542 36.968C59.8302 36.968 59.2702 37.112 58.7742 37.4C58.2782 37.688 57.8862 38.096 57.5982 38.624C57.3102 39.152 57.1662 39.792 57.1662 40.544C57.1662 41.28 57.3102 41.92 57.5982 42.464C57.8862 42.992 58.2782 43.4 58.7742 43.688C59.2702 43.976 59.8302 44.12 60.4542 44.12ZM77.1014 47V30.2H84.7334C86.5574 30.2 88.1654 30.552 89.5574 31.256C90.9494 31.944 92.0374 32.912 92.8214 34.16C93.6054 35.408 93.9974 36.888 93.9974 38.6C93.9974 40.296 93.6054 41.776 92.8214 43.04C92.0374 44.288 90.9494 45.264 89.5574 45.968C88.1654 46.656 86.5574 47 84.7334 47H77.1014ZM80.9894 43.808H84.5414C85.6614 43.808 86.6294 43.6 87.4454 43.184C88.2774 42.752 88.9174 42.144 89.3654 41.36C89.8294 40.576 90.0614 39.656 90.0614 38.6C90.0614 37.528 89.8294 36.608 89.3654 35.84C88.9174 35.056 88.2774 34.456 87.4454 34.04C86.6294 33.608 85.6614 33.392 84.5414 33.392H80.9894V43.808ZM103.074 47.192C101.602 47.192 100.306 46.904 99.1855 46.328C98.0815 45.752 97.2255 44.968 96.6175 43.976C96.0095 42.968 95.7055 41.824 95.7055 40.544C95.7055 39.248 96.0015 38.104 96.5935 37.112C97.2015 36.104 98.0255 35.32 99.0655 34.76C100.106 34.184 101.282 33.896 102.594 33.896C103.858 33.896 104.994 34.168 106.002 34.712C107.026 35.24 107.834 36.008 108.426 37.016C109.018 38.008 109.314 39.2 109.314 40.592C109.314 40.736 109.306 40.904 109.29 41.096C109.274 41.272 109.258 41.44 109.242 41.6H98.7535V39.416H107.273L105.834 40.064C105.834 39.392 105.698 38.808 105.426 38.312C105.154 37.816 104.778 37.432 104.298 37.16C103.818 36.872 103.258 36.728 102.618 36.728C101.978 36.728 101.41 36.872 100.914 37.16C100.434 37.432 100.058 37.824 99.7855 38.336C99.5135 38.832 99.3775 39.424 99.3775 40.112V40.688C99.3775 41.392 99.5295 42.016 99.8335 42.56C100.154 43.088 100.594 43.496 101.154 43.784C101.73 44.056 102.402 44.192 103.17 44.192C103.858 44.192 104.458 44.088 104.97 43.88C105.498 43.672 105.978 43.36 106.41 42.944L108.402 45.104C107.81 45.776 107.066 46.296 106.17 46.664C105.274 47.016 104.242 47.192 103.074 47.192ZM116.15 47.192C115.046 47.192 113.982 47.064 112.958 46.808C111.95 46.536 111.15 46.2 110.558 45.8L111.806 43.112C112.398 43.48 113.094 43.784 113.894 44.024C114.71 44.248 115.51 44.36 116.294 44.36C117.158 44.36 117.766 44.256 118.118 44.048C118.486 43.84 118.67 43.552 118.67 43.184C118.67 42.88 118.526 42.656 118.238 42.512C117.966 42.352 117.598 42.232 117.134 42.152C116.67 42.072 116.158 41.992 115.598 41.912C115.054 41.832 114.502 41.728 113.942 41.6C113.382 41.456 112.87 41.248 112.406 40.976C111.942 40.704 111.566 40.336 111.278 39.872C111.006 39.408 110.87 38.808 110.87 38.072C110.87 37.256 111.102 36.536 111.566 35.912C112.046 35.288 112.734 34.8 113.63 34.448C114.526 34.08 115.598 33.896 116.846 33.896C117.726 33.896 118.622 33.992 119.534 34.184C120.446 34.376 121.206 34.656 121.814 35.024L120.566 37.688C119.942 37.32 119.31 37.072 118.67 36.944C118.046 36.8 117.438 36.728 116.846 36.728C116.014 36.728 115.406 36.84 115.022 37.064C114.638 37.288 114.446 37.576 114.446 37.928C114.446 38.248 114.582 38.488 114.854 38.648C115.142 38.808 115.518 38.936 115.982 39.032C116.446 39.128 116.95 39.216 117.494 39.296C118.054 39.36 118.614 39.464 119.174 39.608C119.734 39.752 120.238 39.96 120.686 40.232C121.15 40.488 121.526 40.848 121.814 41.312C122.102 41.76 122.246 42.352 122.246 43.088C122.246 43.888 122.006 44.6 121.526 45.224C121.046 45.832 120.35 46.312 119.438 46.664C118.542 47.016 117.446 47.192 116.15 47.192ZM124.556 47V34.088H128.3V47H124.556ZM126.428 32.288C125.74 32.288 125.18 32.088 124.748 31.688C124.316 31.288 124.1 30.792 124.1 30.2C124.1 29.608 124.316 29.112 124.748 28.712C125.18 28.312 125.74 28.112 126.428 28.112C127.116 28.112 127.676 28.304 128.108 28.688C128.54 29.056 128.756 29.536 128.756 30.128C128.756 30.752 128.54 31.272 128.108 31.688C127.692 32.088 127.132 32.288 126.428 32.288ZM137.847 51.848C136.631 51.848 135.455 51.696 134.319 51.392C133.199 51.104 132.263 50.664 131.511 50.072L132.999 47.384C133.543 47.832 134.231 48.184 135.063 48.44C135.911 48.712 136.743 48.848 137.559 48.848C138.887 48.848 139.847 48.552 140.439 47.96C141.047 47.368 141.351 46.488 141.351 45.32V43.376L141.591 40.136L141.543 36.872V34.088H145.095V44.84C145.095 47.24 144.471 49.008 143.223 50.144C141.975 51.28 140.183 51.848 137.847 51.848ZM137.271 46.376C136.071 46.376 134.983 46.12 134.007 45.608C133.047 45.08 132.271 44.352 131.679 43.424C131.103 42.48 130.815 41.384 130.815 40.136C130.815 38.872 131.103 37.776 131.679 36.848C132.271 35.904 133.047 35.176 134.007 34.664C134.983 34.152 136.071 33.896 137.271 33.896C138.359 33.896 139.319 34.12 140.151 34.568C140.983 35 141.631 35.68 142.095 36.608C142.559 37.52 142.791 38.696 142.791 40.136C142.791 41.56 142.559 42.736 142.095 43.664C141.631 44.576 140.983 45.256 140.151 45.704C139.319 46.152 138.359 46.376 137.271 46.376ZM138.015 43.304C138.671 43.304 139.255 43.176 139.767 42.92C140.279 42.648 140.679 42.272 140.967 41.792C141.255 41.312 141.399 40.76 141.399 40.136C141.399 39.496 141.255 38.944 140.967 38.48C140.679 38 140.279 37.632 139.767 37.376C139.255 37.104 138.671 36.968 138.015 36.968C137.359 36.968 136.775 37.104 136.263 37.376C135.751 37.632 135.343 38 135.039 38.48C134.751 38.944 134.607 39.496 134.607 40.136C134.607 40.76 134.751 41.312 135.039 41.792C135.343 42.272 135.751 42.648 136.263 42.92C136.775 43.176 137.359 43.304 138.015 43.304ZM156.428 33.896C157.452 33.896 158.364 34.104 159.164 34.52C159.98 34.92 160.62 35.544 161.084 36.392C161.548 37.224 161.78 38.296 161.78 39.608V47H158.036V40.184C158.036 39.144 157.804 38.376 157.34 37.88C156.892 37.384 156.252 37.136 155.42 37.136C154.828 37.136 154.292 37.264 153.812 37.52C153.348 37.76 152.98 38.136 152.708 38.648C152.452 39.16 152.324 39.816 152.324 40.616V47H148.58V34.088H152.156V37.664L151.484 36.584C151.948 35.72 152.612 35.056 153.476 34.592C154.34 34.128 155.324 33.896 156.428 33.896Z" fill="white"/>
<path d="M192 26.5L195.241 35.2589L204 38.5L195.241 41.7411L192 50.5L188.759 41.7411L180 38.5L188.759 35.2589L192 26.5Z" fill="white"/>
<path d="M219.784 47L227.272 30.2H231.112L238.624 47H234.544L228.4 32.168H229.936L223.768 47H219.784ZM223.528 43.4L224.56 40.448H233.2L234.256 43.4H223.528ZM247.735 47.192C246.647 47.192 245.695 46.952 244.879 46.472C244.063 45.992 243.423 45.264 242.959 44.288C242.511 43.296 242.287 42.048 242.287 40.544C242.287 39.024 242.503 37.776 242.935 36.8C243.367 35.824 243.991 35.096 244.807 34.616C245.623 34.136 246.599 33.896 247.735 33.896C248.951 33.896 250.039 34.176 250.999 34.736C251.975 35.28 252.743 36.048 253.303 37.04C253.879 38.032 254.167 39.2 254.167 40.544C254.167 41.904 253.879 43.08 253.303 44.072C252.743 45.064 251.975 45.832 250.999 46.376C250.039 46.92 248.951 47.192 247.735 47.192ZM240.103 51.656V34.088H243.679V36.728L243.607 40.568L243.847 44.384V51.656H240.103ZM247.087 44.12C247.711 44.12 248.263 43.976 248.743 43.688C249.239 43.4 249.631 42.992 249.919 42.464C250.223 41.92 250.375 41.28 250.375 40.544C250.375 39.792 250.223 39.152 249.919 38.624C249.631 38.096 249.239 37.688 248.743 37.4C248.263 37.112 247.711 36.968 247.087 36.968C246.463 36.968 245.903 37.112 245.407 37.4C244.911 37.688 244.519 38.096 244.231 38.624C243.943 39.152 243.799 39.792 243.799 40.544C243.799 41.28 243.943 41.92 244.231 42.464C244.519 42.992 244.911 43.4 245.407 43.688C245.903 43.976 246.463 44.12 247.087 44.12ZM264.305 47.192C263.217 47.192 262.265 46.952 261.449 46.472C260.633 45.992 259.993 45.264 259.529 44.288C259.081 43.296 258.857 42.048 258.857 40.544C258.857 39.024 259.073 37.776 259.505 36.8C259.937 35.824 260.561 35.096 261.377 34.616C262.193 34.136 263.169 33.896 264.305 33.896C265.521 33.896 266.609 34.176 267.569 34.736C268.545 35.28 269.313 36.048 269.873 37.04C270.449 38.032 270.737 39.2 270.737 40.544C270.737 41.904 270.449 43.08 269.873 44.072C269.313 45.064 268.545 45.832 267.569 46.376C266.609 46.92 265.521 47.192 264.305 47.192ZM256.673 51.656V34.088H260.249V36.728L260.177 40.568L260.417 44.384V51.656H256.673ZM263.657 44.12C264.281 44.12 264.833 43.976 265.313 43.688C265.809 43.4 266.201 42.992 266.489 42.464C266.793 41.92 266.945 41.28 266.945 40.544C266.945 39.792 266.793 39.152 266.489 38.624C266.201 38.096 265.809 37.688 265.313 37.4C264.833 37.112 264.281 36.968 263.657 36.968C263.033 36.968 262.473 37.112 261.977 37.4C261.481 37.688 261.089 38.096 260.801 38.624C260.513 39.152 260.369 39.792 260.369 40.544C260.369 41.28 260.513 41.92 260.801 42.464C261.089 42.992 261.481 43.4 261.977 43.688C262.473 43.976 263.033 44.12 263.657 44.12ZM280.305 47V30.2H287.937C289.761 30.2 291.369 30.552 292.761 31.256C294.153 31.944 295.241 32.912 296.025 34.16C296.809 35.408 297.201 36.888 297.201 38.6C297.201 40.296 296.809 41.776 296.025 43.04C295.241 44.288 294.153 45.264 292.761 45.968C291.369 46.656 289.761 47 287.937 47H280.305ZM284.193 43.808H287.745C288.865 43.808 289.833 43.6 290.648 43.184C291.481 42.752 292.121 42.144 292.569 41.36C293.033 40.576 293.265 39.656 293.265 38.6C293.265 37.528 293.033 36.608 292.569 35.84C292.121 35.056 291.481 34.456 290.648 34.04C289.833 33.608 288.865 33.392 287.745 33.392H284.193V43.808ZM306.277 47.192C304.805 47.192 303.509 46.904 302.389 46.328C301.285 45.752 300.429 44.968 299.821 43.976C299.213 42.968 298.909 41.824 298.909 40.544C298.909 39.248 299.205 38.104 299.797 37.112C300.405 36.104 301.229 35.32 302.269 34.76C303.309 34.184 304.485 33.896 305.797 33.896C307.061 33.896 308.197 34.168 309.205 34.712C310.229 35.24 311.037 36.008 311.629 37.016C312.221 38.008 312.517 39.2 312.517 40.592C312.517 40.736 312.509 40.904 312.493 41.096C312.477 41.272 312.461 41.44 312.445 41.6H301.957V39.416H310.477L309.037 40.064C309.037 39.392 308.901 38.808 308.629 38.312C308.357 37.816 307.981 37.432 307.501 37.16C307.021 36.872 306.461 36.728 305.821 36.728C305.181 36.728 304.613 36.872 304.117 37.16C303.637 37.432 303.261 37.824 302.989 38.336C302.717 38.832 302.581 39.424 302.581 40.112V40.688C302.581 41.392 302.733 42.016 303.037 42.56C303.357 43.088 303.797 43.496 304.357 43.784C304.933 44.056 305.605 44.192 306.373 44.192C307.061 44.192 307.661 44.088 308.173 43.88C308.701 43.672 309.181 43.36 309.613 42.944L311.605 45.104C311.013 45.776 310.269 46.296 309.373 46.664C308.477 47.016 307.445 47.192 306.277 47.192ZM319.353 47.192C318.249 47.192 317.185 47.064 316.161 46.808C315.153 46.536 314.353 46.2 313.761 45.8L315.009 43.112C315.601 43.48 316.297 43.784 317.097 44.024C317.913 44.248 318.713 44.36 319.497 44.36C320.361 44.36 320.969 44.256 321.321 44.048C321.689 43.84 321.873 43.552 321.873 43.184C321.873 42.88 321.729 42.656 321.441 42.512C321.169 42.352 320.801 42.232 320.337 42.152C319.873 42.072 319.361 41.992 318.801 41.912C318.257 41.832 317.705 41.728 317.145 41.6C316.585 41.456 316.073 41.248 315.609 40.976C315.145 40.704 314.769 40.336 314.481 39.872C314.209 39.408 314.073 38.808 314.073 38.072C314.073 37.256 314.305 36.536 314.769 35.912C315.249 35.288 315.937 34.8 316.833 34.448C317.729 34.08 318.801 33.896 320.049 33.896C320.929 33.896 321.825 33.992 322.737 34.184C323.649 34.376 324.409 34.656 325.017 35.024L323.769 37.688C323.145 37.32 322.513 37.072 321.873 36.944C321.249 36.8 320.641 36.728 320.049 36.728C319.217 36.728 318.609 36.84 318.225 37.064C317.841 37.288 317.649 37.576 317.649 37.928C317.649 38.248 317.785 38.488 318.057 38.648C318.345 38.808 318.721 38.936 319.185 39.032C319.649 39.128 320.153 39.216 320.697 39.296C321.257 39.36 321.817 39.464 322.377 39.608C322.937 39.752 323.441 39.96 323.889 40.232C324.353 40.488 324.729 40.848 325.017 41.312C325.305 41.76 325.449 42.352 325.449 43.088C325.449 43.888 325.209 44.6 324.729 45.224C324.249 45.832 323.553 46.312 322.641 46.664C321.745 47.016 320.649 47.192 319.353 47.192ZM327.759 47V34.088H331.503V47H327.759ZM329.631 32.288C328.943 32.288 328.383 32.088 327.951 31.688C327.519 31.288 327.303 30.792 327.303 30.2C327.303 29.608 327.519 29.112 327.951 28.712C328.383 28.312 328.943 28.112 329.631 28.112C330.319 28.112 330.879 28.304 331.311 28.688C331.743 29.056 331.959 29.536 331.959 30.128C331.959 30.752 331.743 31.272 331.311 31.688C330.895 32.088 330.335 32.288 329.631 32.288ZM341.05 51.848C339.834 51.848 338.658 51.696 337.522 51.392C336.402 51.104 335.466 50.664 334.714 50.072L336.202 47.384C336.746 47.832 337.434 48.184 338.266 48.44C339.114 48.712 339.946 48.848 340.762 48.848C342.09 48.848 343.05 48.552 343.642 47.96C344.25 47.368 344.554 46.488 344.554 45.32V43.376L344.794 40.136L344.746 36.872V34.088H348.298V44.84C348.298 47.24 347.674 49.008 346.426 50.144C345.178 51.28 343.386 51.848 341.05 51.848ZM340.474 46.376C339.274 46.376 338.186 46.12 337.21 45.608C336.25 45.08 335.474 44.352 334.882 43.424C334.306 42.48 334.018 41.384 334.018 40.136C334.018 38.872 334.306 37.776 334.882 36.848C335.474 35.904 336.25 35.176 337.21 34.664C338.186 34.152 339.274 33.896 340.474 33.896C341.562 33.896 342.522 34.12 343.354 34.568C344.186 35 344.834 35.68 345.298 36.608C345.762 37.52 345.994 38.696 345.994 40.136C345.994 41.56 345.762 42.736 345.298 43.664C344.834 44.576 344.186 45.256 343.354 45.704C342.522 46.152 341.562 46.376 340.474 46.376ZM341.218 43.304C341.874 43.304 342.458 43.176 342.97 42.92C343.482 42.648 343.882 42.272 344.17 41.792C344.458 41.312 344.602 40.76 344.602 40.136C344.602 39.496 344.458 38.944 344.17 38.48C343.882 38 343.482 37.632 342.97 37.376C342.458 37.104 341.874 36.968 341.218 36.968C340.562 36.968 339.978 37.104 339.466 37.376C338.954 37.632 338.546 38 338.242 38.48C337.954 38.944 337.81 39.496 337.81 40.136C337.81 40.76 337.954 41.312 338.242 41.792C338.546 42.272 338.954 42.648 339.466 42.92C339.978 43.176 340.562 43.304 341.218 43.304ZM359.631 33.896C360.655 33.896 361.567 34.104 362.367 34.52C363.183 34.92 363.823 35.544 364.287 36.392C364.751 37.224 364.983 38.296 364.983 39.608V47H361.239V40.184C361.239 39.144 361.007 38.376 360.543 37.88C360.095 37.384 359.455 37.136 358.623 37.136C358.031 37.136 357.495 37.264 357.015 37.52C356.551 37.76 356.183 38.136 355.911 38.648C355.655 39.16 355.527 39.816 355.527 40.616V47H351.783V34.088H355.359V37.664L354.687 36.584C355.151 35.72 355.815 35.056 356.679 34.592C357.543 34.128 358.527 33.896 359.631 33.896Z" fill="white"/>
<path d="M395 26.5L398.241 35.2589L407 38.5L398.241 41.7411L395 50.5L391.759 41.7411L383 38.5L391.759 35.2589L395 26.5Z" fill="white"/>
<path d="M424.992 47V30.2H432.624C434.448 30.2 436.056 30.552 437.448 31.256C438.84 31.944 439.928 32.912 440.712 34.16C441.496 35.408 441.888 36.888 441.888 38.6C441.888 40.296 441.496 41.776 440.712 43.04C439.928 44.288 438.84 45.264 437.448 45.968C436.056 46.656 434.448 47 432.624 47H424.992ZM428.88 43.808H432.432C433.552 43.808 434.52 43.6 435.336 43.184C436.168 42.752 436.808 42.144 437.256 41.36C437.72 40.576 437.952 39.656 437.952 38.6C437.952 37.528 437.72 36.608 437.256 35.84C436.808 35.056 436.168 34.456 435.336 34.04C434.52 33.608 433.552 33.392 432.432 33.392H428.88V43.808ZM452.476 47V44.48L452.236 43.928V39.416C452.236 38.616 451.988 37.992 451.492 37.544C451.012 37.096 450.268 36.872 449.26 36.872C448.572 36.872 447.892 36.984 447.22 37.208C446.564 37.416 446.004 37.704 445.54 38.072L444.196 35.456C444.9 34.96 445.748 34.576 446.74 34.304C447.732 34.032 448.74 33.896 449.764 33.896C451.732 33.896 453.26 34.36 454.348 35.288C455.436 36.216 455.98 37.664 455.98 39.632V47H452.476ZM448.54 47.192C447.532 47.192 446.668 47.024 445.948 46.688C445.228 46.336 444.676 45.864 444.292 45.272C443.908 44.68 443.716 44.016 443.716 43.28C443.716 42.512 443.9 41.84 444.268 41.264C444.652 40.688 445.252 40.24 446.068 39.92C446.884 39.584 447.948 39.416 449.26 39.416H452.692V41.6H449.668C448.788 41.6 448.18 41.744 447.844 42.032C447.524 42.32 447.364 42.68 447.364 43.112C447.364 43.592 447.548 43.976 447.916 44.264C448.3 44.536 448.82 44.672 449.476 44.672C450.1 44.672 450.66 44.528 451.156 44.24C451.652 43.936 452.012 43.496 452.236 42.92L452.812 44.648C452.54 45.48 452.044 46.112 451.324 46.544C450.604 46.976 449.676 47.192 448.54 47.192ZM463.713 47.192C462.609 47.192 461.545 47.064 460.521 46.808C459.513 46.536 458.713 46.2 458.121 45.8L459.369 43.112C459.961 43.48 460.657 43.784 461.457 44.024C462.273 44.248 463.073 44.36 463.857 44.36C464.721 44.36 465.329 44.256 465.681 44.048C466.049 43.84 466.233 43.552 466.233 43.184C466.233 42.88 466.089 42.656 465.801 42.512C465.529 42.352 465.161 42.232 464.697 42.152C464.233 42.072 463.721 41.992 463.161 41.912C462.617 41.832 462.065 41.728 461.505 41.6C460.945 41.456 460.433 41.248 459.969 40.976C459.505 40.704 459.129 40.336 458.841 39.872C458.569 39.408 458.433 38.808 458.433 38.072C458.433 37.256 458.665 36.536 459.129 35.912C459.609 35.288 460.297 34.8 461.193 34.448C462.089 34.08 463.161 33.896 464.409 33.896C465.289 33.896 466.185 33.992 467.097 34.184C468.009 34.376 468.769 34.656 469.377 35.024L468.129 37.688C467.505 37.32 466.873 37.072 466.233 36.944C465.609 36.8 465.001 36.728 464.409 36.728C463.577 36.728 462.969 36.84 462.585 37.064C462.201 37.288 462.009 37.576 462.009 37.928C462.009 38.248 462.145 38.488 462.417 38.648C462.705 38.808 463.081 38.936 463.545 39.032C464.009 39.128 464.513 39.216 465.057 39.296C465.617 39.36 466.177 39.464 466.737 39.608C467.297 39.752 467.801 39.96 468.249 40.232C468.713 40.488 469.089 40.848 469.377 41.312C469.665 41.76 469.809 42.352 469.809 43.088C469.809 43.888 469.569 44.6 469.089 45.224C468.609 45.832 467.913 46.312 467.001 46.664C466.105 47.016 465.009 47.192 463.713 47.192ZM479.967 33.896C480.991 33.896 481.903 34.104 482.703 34.52C483.519 34.92 484.159 35.544 484.623 36.392C485.087 37.224 485.319 38.296 485.319 39.608V47H481.575V40.184C481.575 39.144 481.343 38.376 480.879 37.88C480.431 37.384 479.791 37.136 478.959 37.136C478.367 37.136 477.831 37.264 477.351 37.52C476.887 37.76 476.519 38.136 476.247 38.648C475.991 39.16 475.863 39.816 475.863 40.616V47H472.119V29.192H475.863V37.664L475.023 36.584C475.487 35.72 476.151 35.056 477.015 34.592C477.879 34.128 478.863 33.896 479.967 33.896ZM496.344 47.192C495.208 47.192 494.232 46.952 493.416 46.472C492.6 45.992 491.976 45.264 491.544 44.288C491.112 43.296 490.896 42.048 490.896 40.544C490.896 39.024 491.12 37.776 491.568 36.8C492.032 35.824 492.672 35.096 493.488 34.616C494.304 34.136 495.256 33.896 496.344 33.896C497.56 33.896 498.648 34.168 499.608 34.712C500.584 35.256 501.352 36.024 501.912 37.016C502.488 38.008 502.776 39.184 502.776 40.544C502.776 41.888 502.488 43.056 501.912 44.048C501.352 45.04 500.584 45.816 499.608 46.376C498.648 46.92 497.56 47.192 496.344 47.192ZM488.712 47V29.192H492.456V36.704L492.216 40.52L492.288 44.36V47H488.712ZM495.696 44.12C496.32 44.12 496.872 43.976 497.352 43.688C497.848 43.4 498.24 42.992 498.528 42.464C498.832 41.92 498.984 41.28 498.984 40.544C498.984 39.792 498.832 39.152 498.528 38.624C498.24 38.096 497.848 37.688 497.352 37.4C496.872 37.112 496.32 36.968 495.696 36.968C495.072 36.968 494.512 37.112 494.016 37.4C493.52 37.688 493.128 38.096 492.84 38.624C492.552 39.152 492.408 39.792 492.408 40.544C492.408 41.28 492.552 41.92 492.84 42.464C493.128 42.992 493.52 43.4 494.016 43.688C494.512 43.976 495.072 44.12 495.696 44.12ZM511.427 47.192C510.051 47.192 508.827 46.904 507.755 46.328C506.699 45.752 505.859 44.968 505.235 43.976C504.627 42.968 504.323 41.824 504.323 40.544C504.323 39.248 504.627 38.104 505.235 37.112C505.859 36.104 506.699 35.32 507.755 34.76C508.827 34.184 510.051 33.896 511.427 33.896C512.787 33.896 514.003 34.184 515.075 34.76C516.147 35.32 516.987 36.096 517.595 37.088C518.203 38.08 518.507 39.232 518.507 40.544C518.507 41.824 518.203 42.968 517.595 43.976C516.987 44.968 516.147 45.752 515.075 46.328C514.003 46.904 512.787 47.192 511.427 47.192ZM511.427 44.12C512.051 44.12 512.611 43.976 513.107 43.688C513.603 43.4 513.995 42.992 514.283 42.464C514.571 41.92 514.715 41.28 514.715 40.544C514.715 39.792 514.571 39.152 514.283 38.624C513.995 38.096 513.603 37.688 513.107 37.4C512.611 37.112 512.051 36.968 511.427 36.968C510.803 36.968 510.243 37.112 509.747 37.4C509.251 37.688 508.851 38.096 508.547 38.624C508.259 39.152 508.115 39.792 508.115 40.544C508.115 41.28 508.259 41.92 508.547 42.464C508.851 42.992 509.251 43.4 509.747 43.688C510.243 43.976 510.803 44.12 511.427 44.12ZM528.718 47V44.48L528.478 43.928V39.416C528.478 38.616 528.23 37.992 527.734 37.544C527.254 37.096 526.51 36.872 525.502 36.872C524.814 36.872 524.134 36.984 523.462 37.208C522.806 37.416 522.246 37.704 521.782 38.072L520.438 35.456C521.142 34.96 521.99 34.576 522.982 34.304C523.974 34.032 524.982 33.896 526.006 33.896C527.974 33.896 529.502 34.36 530.59 35.288C531.678 36.216 532.222 37.664 532.222 39.632V47H528.718ZM524.782 47.192C523.774 47.192 522.91 47.024 522.19 46.688C521.47 46.336 520.918 45.864 520.534 45.272C520.15 44.68 519.958 44.016 519.958 43.28C519.958 42.512 520.142 41.84 520.51 41.264C520.894 40.688 521.494 40.24 522.31 39.92C523.126 39.584 524.19 39.416 525.502 39.416H528.934V41.6H525.91C525.03 41.6 524.422 41.744 524.086 42.032C523.766 42.32 523.606 42.68 523.606 43.112C523.606 43.592 523.79 43.976 524.158 44.264C524.542 44.536 525.062 44.672 525.718 44.672C526.342 44.672 526.902 44.528 527.398 44.24C527.894 43.936 528.254 43.496 528.478 42.92L529.054 44.648C528.782 45.48 528.286 46.112 527.566 46.544C526.846 46.976 525.918 47.192 524.782 47.192ZM535.611 47V34.088H539.187V37.736L538.683 36.68C539.067 35.768 539.683 35.08 540.531 34.616C541.379 34.136 542.411 33.896 543.627 33.896V37.352C543.467 37.336 543.323 37.328 543.195 37.328C543.067 37.312 542.931 37.304 542.787 37.304C541.763 37.304 540.931 37.6 540.291 38.192C539.667 38.768 539.355 39.672 539.355 40.904V47H535.611ZM551.303 47.192C550.087 47.192 548.991 46.92 548.015 46.376C547.039 45.816 546.263 45.04 545.687 44.048C545.127 43.056 544.847 41.888 544.847 40.544C544.847 39.184 545.127 38.008 545.687 37.016C546.263 36.024 547.039 35.256 548.015 34.712C548.991 34.168 550.087 33.896 551.303 33.896C552.391 33.896 553.343 34.136 554.159 34.616C554.975 35.096 555.607 35.824 556.055 36.8C556.503 37.776 556.727 39.024 556.727 40.544C556.727 42.048 556.511 43.296 556.079 44.288C555.647 45.264 555.023 45.992 554.207 46.472C553.407 46.952 552.439 47.192 551.303 47.192ZM551.951 44.12C552.559 44.12 553.111 43.976 553.607 43.688C554.103 43.4 554.495 42.992 554.783 42.464C555.087 41.92 555.239 41.28 555.239 40.544C555.239 39.792 555.087 39.152 554.783 38.624C554.495 38.096 554.103 37.688 553.607 37.4C553.111 37.112 552.559 36.968 551.951 36.968C551.327 36.968 550.767 37.112 550.271 37.4C549.775 37.688 549.375 38.096 549.071 38.624C548.783 39.152 548.639 39.792 548.639 40.544C548.639 41.28 548.783 41.92 549.071 42.464C549.375 42.992 549.775 43.4 550.271 43.688C550.767 43.976 551.327 44.12 551.951 44.12ZM555.335 47V44.36L555.407 40.52L555.167 36.704V29.192H558.911V47H555.335Z" fill="white"/>
<path d="M589 26.5L592.241 35.2589L601 38.5L592.241 41.7411L589 50.5L585.759 41.7411L577 38.5L585.759 35.2589L589 26.5Z" fill="white"/>
<path d="M623.024 47L617.528 30.2H621.56L626.336 45.08H624.32L629.312 30.2H632.912L637.712 45.08H635.768L640.664 30.2H644.384L638.888 47H634.712L630.464 33.944H631.568L627.2 47H623.024ZM646.501 47V34.088H650.245V47H646.501ZM648.373 32.288C647.685 32.288 647.125 32.088 646.693 31.688C646.261 31.288 646.045 30.792 646.045 30.2C646.045 29.608 646.261 29.112 646.693 28.712C647.125 28.312 647.685 28.112 648.373 28.112C649.061 28.112 649.621 28.304 650.053 28.688C650.485 29.056 650.701 29.536 650.701 30.128C650.701 30.752 650.485 31.272 650.053 31.688C649.637 32.088 649.077 32.288 648.373 32.288ZM653.72 47V34.088H657.296V37.736L656.792 36.68C657.176 35.768 657.792 35.08 658.64 34.616C659.488 34.136 660.52 33.896 661.736 33.896V37.352C661.576 37.336 661.432 37.328 661.304 37.328C661.176 37.312 661.04 37.304 660.896 37.304C659.872 37.304 659.04 37.6 658.4 38.192C657.776 38.768 657.464 39.672 657.464 40.904V47H653.72ZM670.277 47.192C668.805 47.192 667.509 46.904 666.389 46.328C665.285 45.752 664.429 44.968 663.821 43.976C663.213 42.968 662.909 41.824 662.909 40.544C662.909 39.248 663.205 38.104 663.797 37.112C664.405 36.104 665.229 35.32 666.269 34.76C667.309 34.184 668.485 33.896 669.797 33.896C671.061 33.896 672.197 34.168 673.205 34.712C674.229 35.24 675.037 36.008 675.629 37.016C676.221 38.008 676.517 39.2 676.517 40.592C676.517 40.736 676.509 40.904 676.493 41.096C676.477 41.272 676.461 41.44 676.445 41.6H665.957V39.416H674.477L673.037 40.064C673.037 39.392 672.901 38.808 672.629 38.312C672.357 37.816 671.981 37.432 671.501 37.16C671.021 36.872 670.461 36.728 669.821 36.728C669.181 36.728 668.613 36.872 668.117 37.16C667.637 37.432 667.261 37.824 666.989 38.336C666.717 38.832 666.581 39.424 666.581 40.112V40.688C666.581 41.392 666.733 42.016 667.037 42.56C667.357 43.088 667.797 43.496 668.357 43.784C668.933 44.056 669.605 44.192 670.373 44.192C671.061 44.192 671.661 44.088 672.173 43.88C672.701 43.672 673.181 43.36 673.613 42.944L675.605 45.104C675.013 45.776 674.269 46.296 673.373 46.664C672.477 47.016 671.445 47.192 670.277 47.192ZM679.465 47V33.8C679.465 32.344 679.897 31.184 680.761 30.32C681.625 29.44 682.857 29 684.457 29C685.001 29 685.521 29.056 686.017 29.168C686.529 29.28 686.961 29.456 687.313 29.696L686.329 32.408C686.121 32.264 685.889 32.152 685.633 32.072C685.377 31.992 685.105 31.952 684.817 31.952C684.273 31.952 683.849 32.112 683.545 32.432C683.257 32.736 683.113 33.2 683.113 33.824V35.024L683.209 36.632V47H679.465ZM677.473 37.256V34.376H686.425V37.256H677.473ZM688.384 47V34.088H691.96V37.736L691.456 36.68C691.84 35.768 692.456 35.08 693.304 34.616C694.152 34.136 695.184 33.896 696.4 33.896V37.352C696.24 37.336 696.096 37.328 695.968 37.328C695.84 37.312 695.704 37.304 695.56 37.304C694.536 37.304 693.704 37.6 693.064 38.192C692.44 38.768 692.128 39.672 692.128 40.904V47H688.384ZM705.703 47V44.48L705.463 43.928V39.416C705.463 38.616 705.215 37.992 704.719 37.544C704.239 37.096 703.495 36.872 702.487 36.872C701.799 36.872 701.119 36.984 700.447 37.208C699.791 37.416 699.231 37.704 698.767 38.072L697.423 35.456C698.127 34.96 698.975 34.576 699.967 34.304C700.959 34.032 701.967 33.896 702.991 33.896C704.959 33.896 706.487 34.36 707.575 35.288C708.663 36.216 709.207 37.664 709.207 39.632V47H705.703ZM701.767 47.192C700.759 47.192 699.895 47.024 699.175 46.688C698.455 46.336 697.903 45.864 697.519 45.272C697.135 44.68 696.943 44.016 696.943 43.28C696.943 42.512 697.127 41.84 697.495 41.264C697.879 40.688 698.479 40.24 699.295 39.92C700.111 39.584 701.175 39.416 702.487 39.416H705.919V41.6H702.895C702.015 41.6 701.407 41.744 701.071 42.032C700.751 42.32 700.591 42.68 700.591 43.112C700.591 43.592 700.775 43.976 701.143 44.264C701.527 44.536 702.047 44.672 702.703 44.672C703.327 44.672 703.887 44.528 704.383 44.24C704.879 43.936 705.239 43.496 705.463 42.92L706.039 44.648C705.767 45.48 705.271 46.112 704.551 46.544C703.831 46.976 702.903 47.192 701.767 47.192ZM729.131 33.896C730.155 33.896 731.059 34.104 731.843 34.52C732.643 34.92 733.267 35.544 733.715 36.392C734.179 37.224 734.411 38.296 734.411 39.608V47H730.667V40.184C730.667 39.144 730.451 38.376 730.019 37.88C729.587 37.384 728.979 37.136 728.195 37.136C727.651 37.136 727.163 37.264 726.731 37.52C726.299 37.76 725.963 38.128 725.723 38.624C725.483 39.12 725.363 39.752 725.363 40.52V47H721.619V40.184C721.619 39.144 721.403 38.376 720.971 37.88C720.555 37.384 719.955 37.136 719.171 37.136C718.627 37.136 718.139 37.264 717.707 37.52C717.275 37.76 716.939 38.128 716.699 38.624C716.459 39.12 716.339 39.752 716.339 40.52V47H712.595V34.088H716.171V37.616L715.499 36.584C715.947 35.704 716.579 35.04 717.395 34.592C718.227 34.128 719.171 33.896 720.227 33.896C721.411 33.896 722.443 34.2 723.323 34.808C724.219 35.4 724.811 36.312 725.099 37.544L723.779 37.184C724.211 36.176 724.899 35.376 725.843 34.784C726.803 34.192 727.899 33.896 729.131 33.896ZM744.269 47.192C742.797 47.192 741.501 46.904 740.381 46.328C739.277 45.752 738.421 44.968 737.813 43.976C737.205 42.968 736.901 41.824 736.901 40.544C736.901 39.248 737.197 38.104 737.789 37.112C738.397 36.104 739.221 35.32 740.261 34.76C741.301 34.184 742.477 33.896 743.789 33.896C745.053 33.896 746.189 34.168 747.197 34.712C748.221 35.24 749.029 36.008 749.621 37.016C750.213 38.008 750.509 39.2 750.509 40.592C750.509 40.736 750.501 40.904 750.485 41.096C750.469 41.272 750.453 41.44 750.437 41.6H739.949V39.416H748.469L747.029 40.064C747.029 39.392 746.893 38.808 746.621 38.312C746.349 37.816 745.973 37.432 745.493 37.16C745.013 36.872 744.453 36.728 743.813 36.728C743.173 36.728 742.605 36.872 742.109 37.16C741.629 37.432 741.253 37.824 740.981 38.336C740.709 38.832 740.573 39.424 740.573 40.112V40.688C740.573 41.392 740.725 42.016 741.029 42.56C741.349 43.088 741.789 43.496 742.349 43.784C742.925 44.056 743.597 44.192 744.365 44.192C745.053 44.192 745.653 44.088 746.165 43.88C746.693 43.672 747.173 43.36 747.605 42.944L749.597 45.104C749.005 45.776 748.261 46.296 747.365 46.664C746.469 47.016 745.437 47.192 744.269 47.192Z" fill="white"/>
<path d="M780 26.5L783.241 35.2589L792 38.5L783.241 41.7411L780 50.5L776.759 41.7411L768 38.5L776.759 35.2589L780 26.5Z" fill="white"/>
<path d="M817.456 47.288C815.072 47.288 813.208 46.624 811.864 45.296C810.52 43.968 809.848 42.072 809.848 39.608V30.2H813.736V39.464C813.736 41.064 814.064 42.216 814.72 42.92C815.376 43.624 816.296 43.976 817.48 43.976C818.664 43.976 819.584 43.624 820.24 42.92C820.896 42.216 821.224 41.064 821.224 39.464V30.2H825.064V39.608C825.064 42.072 824.392 43.968 823.048 45.296C821.704 46.624 819.84 47.288 817.456 47.288ZM832.986 47.192C831.882 47.192 830.818 47.064 829.794 46.808C828.786 46.536 827.986 46.2 827.394 45.8L828.642 43.112C829.234 43.48 829.93 43.784 830.73 44.024C831.546 44.248 832.346 44.36 833.13 44.36C833.994 44.36 834.602 44.256 834.954 44.048C835.322 43.84 835.506 43.552 835.506 43.184C835.506 42.88 835.362 42.656 835.074 42.512C834.802 42.352 834.434 42.232 833.97 42.152C833.506 42.072 832.994 41.992 832.434 41.912C831.89 41.832 831.338 41.728 830.778 41.6C830.218 41.456 829.706 41.248 829.242 40.976C828.778 40.704 828.402 40.336 828.114 39.872C827.842 39.408 827.706 38.808 827.706 38.072C827.706 37.256 827.938 36.536 828.402 35.912C828.882 35.288 829.57 34.8 830.466 34.448C831.362 34.08 832.434 33.896 833.682 33.896C834.562 33.896 835.458 33.992 836.37 34.184C837.282 34.376 838.042 34.656 838.65 35.024L837.402 37.688C836.778 37.32 836.146 37.072 835.506 36.944C834.882 36.8 834.274 36.728 833.682 36.728C832.85 36.728 832.242 36.84 831.858 37.064C831.474 37.288 831.282 37.576 831.282 37.928C831.282 38.248 831.418 38.488 831.69 38.648C831.978 38.808 832.354 38.936 832.818 39.032C833.282 39.128 833.786 39.216 834.33 39.296C834.89 39.36 835.45 39.464 836.01 39.608C836.57 39.752 837.074 39.96 837.522 40.232C837.986 40.488 838.362 40.848 838.65 41.312C838.938 41.76 839.082 42.352 839.082 43.088C839.082 43.888 838.842 44.6 838.362 45.224C837.882 45.832 837.186 46.312 836.274 46.664C835.378 47.016 834.282 47.192 832.986 47.192ZM847.8 47.192C846.328 47.192 845.032 46.904 843.912 46.328C842.808 45.752 841.952 44.968 841.344 43.976C840.736 42.968 840.432 41.824 840.432 40.544C840.432 39.248 840.728 38.104 841.32 37.112C841.928 36.104 842.752 35.32 843.792 34.76C844.832 34.184 846.008 33.896 847.32 33.896C848.584 33.896 849.72 34.168 850.728 34.712C851.752 35.24 852.56 36.008 853.152 37.016C853.744 38.008 854.04 39.2 854.04 40.592C854.04 40.736 854.032 40.904 854.016 41.096C854 41.272 853.984 41.44 853.968 41.6H843.48V39.416H852L850.56 40.064C850.56 39.392 850.424 38.808 850.152 38.312C849.88 37.816 849.504 37.432 849.024 37.16C848.544 36.872 847.984 36.728 847.344 36.728C846.704 36.728 846.136 36.872 845.64 37.16C845.16 37.432 844.784 37.824 844.512 38.336C844.24 38.832 844.104 39.424 844.104 40.112V40.688C844.104 41.392 844.256 42.016 844.56 42.56C844.88 43.088 845.32 43.496 845.88 43.784C846.456 44.056 847.128 44.192 847.896 44.192C848.584 44.192 849.184 44.088 849.696 43.88C850.224 43.672 850.704 43.36 851.136 42.944L853.128 45.104C852.536 45.776 851.792 46.296 850.896 46.664C850 47.016 848.968 47.192 847.8 47.192ZM856.533 47V34.088H860.109V37.736L859.605 36.68C859.989 35.768 860.605 35.08 861.453 34.616C862.301 34.136 863.333 33.896 864.549 33.896V37.352C864.389 37.336 864.245 37.328 864.117 37.328C863.989 37.312 863.853 37.304 863.709 37.304C862.685 37.304 861.853 37.6 861.213 38.192C860.589 38.768 860.277 39.672 860.277 40.904V47H856.533ZM873.93 47V30.2H881.202C882.706 30.2 884.002 30.448 885.09 30.944C886.178 31.424 887.018 32.12 887.61 33.032C888.202 33.944 888.498 35.032 888.498 36.296C888.498 37.544 888.202 38.624 887.61 39.536C887.018 40.432 886.178 41.12 885.09 41.6C884.002 42.08 882.706 42.32 881.202 42.32H876.09L877.818 40.616V47H873.93ZM884.609 47L880.41 40.904H884.562L888.81 47H884.609ZM877.818 41.048L876.09 39.224H880.986C882.186 39.224 883.082 38.968 883.674 38.456C884.266 37.928 884.562 37.208 884.562 36.296C884.562 35.368 884.266 34.648 883.674 34.136C883.082 33.624 882.186 33.368 880.986 33.368H876.09L877.818 31.52V41.048ZM897.722 47.192C896.25 47.192 894.954 46.904 893.834 46.328C892.73 45.752 891.874 44.968 891.266 43.976C890.658 42.968 890.354 41.824 890.354 40.544C890.354 39.248 890.65 38.104 891.242 37.112C891.85 36.104 892.674 35.32 893.714 34.76C894.754 34.184 895.93 33.896 897.242 33.896C898.506 33.896 899.642 34.168 900.65 34.712C901.674 35.24 902.482 36.008 903.074 37.016C903.666 38.008 903.962 39.2 903.962 40.592C903.962 40.736 903.954 40.904 903.938 41.096C903.922 41.272 903.906 41.44 903.89 41.6H893.402V39.416H901.922L900.482 40.064C900.482 39.392 900.346 38.808 900.074 38.312C899.802 37.816 899.426 37.432 898.946 37.16C898.466 36.872 897.906 36.728 897.266 36.728C896.626 36.728 896.058 36.872 895.562 37.16C895.082 37.432 894.706 37.824 894.434 38.336C894.162 38.832 894.026 39.424 894.026 40.112V40.688C894.026 41.392 894.178 42.016 894.482 42.56C894.802 43.088 895.242 43.496 895.802 43.784C896.378 44.056 897.05 44.192 897.818 44.192C898.506 44.192 899.106 44.088 899.618 43.88C900.146 43.672 900.626 43.36 901.058 42.944L903.05 45.104C902.458 45.776 901.714 46.296 900.818 46.664C899.922 47.016 898.89 47.192 897.722 47.192ZM910.799 47.192C909.695 47.192 908.631 47.064 907.607 46.808C906.599 46.536 905.799 46.2 905.207 45.8L906.455 43.112C907.047 43.48 907.743 43.784 908.543 44.024C909.359 44.248 910.159 44.36 910.943 44.36C911.807 44.36 912.415 44.256 912.767 44.048C913.135 43.84 913.319 43.552 913.319 43.184C913.319 42.88 913.175 42.656 912.887 42.512C912.615 42.352 912.247 42.232 911.783 42.152C911.319 42.072 910.807 41.992 910.247 41.912C909.703 41.832 909.151 41.728 908.591 41.6C908.031 41.456 907.519 41.248 907.055 40.976C906.591 40.704 906.215 40.336 905.927 39.872C905.655 39.408 905.519 38.808 905.519 38.072C905.519 37.256 905.751 36.536 906.215 35.912C906.695 35.288 907.383 34.8 908.279 34.448C909.175 34.08 910.247 33.896 911.495 33.896C912.375 33.896 913.271 33.992 914.183 34.184C915.095 34.376 915.855 34.656 916.463 35.024L915.215 37.688C914.591 37.32 913.959 37.072 913.319 36.944C912.695 36.8 912.087 36.728 911.495 36.728C910.663 36.728 910.055 36.84 909.671 37.064C909.287 37.288 909.095 37.576 909.095 37.928C909.095 38.248 909.231 38.488 909.503 38.648C909.791 38.808 910.167 38.936 910.631 39.032C911.095 39.128 911.599 39.216 912.143 39.296C912.703 39.36 913.263 39.464 913.823 39.608C914.383 39.752 914.887 39.96 915.335 40.232C915.799 40.488 916.175 40.848 916.463 41.312C916.751 41.76 916.895 42.352 916.895 43.088C916.895 43.888 916.655 44.6 916.175 45.224C915.695 45.832 914.999 46.312 914.087 46.664C913.191 47.016 912.095 47.192 910.799 47.192ZM925.613 47.192C924.141 47.192 922.845 46.904 921.725 46.328C920.621 45.752 919.765 44.968 919.157 43.976C918.549 42.968 918.245 41.824 918.245 40.544C918.245 39.248 918.541 38.104 919.133 37.112C919.741 36.104 920.565 35.32 921.605 34.76C922.645 34.184 923.821 33.896 925.133 33.896C926.397 33.896 927.533 34.168 928.541 34.712C929.565 35.24 930.373 36.008 930.965 37.016C931.557 38.008 931.853 39.2 931.853 40.592C931.853 40.736 931.845 40.904 931.829 41.096C931.813 41.272 931.797 41.44 931.781 41.6H921.293V39.416H929.813L928.373 40.064C928.373 39.392 928.237 38.808 927.965 38.312C927.693 37.816 927.317 37.432 926.837 37.16C926.357 36.872 925.797 36.728 925.157 36.728C924.517 36.728 923.949 36.872 923.453 37.16C922.973 37.432 922.597 37.824 922.325 38.336C922.053 38.832 921.917 39.424 921.917 40.112V40.688C921.917 41.392 922.069 42.016 922.373 42.56C922.693 43.088 923.133 43.496 923.693 43.784C924.269 44.056 924.941 44.192 925.709 44.192C926.397 44.192 926.997 44.088 927.509 43.88C928.037 43.672 928.517 43.36 928.949 42.944L930.941 45.104C930.349 45.776 929.605 46.296 928.709 46.664C927.813 47.016 926.781 47.192 925.613 47.192ZM941.914 47V44.48L941.674 43.928V39.416C941.674 38.616 941.426 37.992 940.93 37.544C940.45 37.096 939.706 36.872 938.698 36.872C938.01 36.872 937.33 36.984 936.658 37.208C936.002 37.416 935.442 37.704 934.978 38.072L933.634 35.456C934.338 34.96 935.186 34.576 936.178 34.304C937.17 34.032 938.178 33.896 939.202 33.896C941.17 33.896 942.698 34.36 943.786 35.288C944.874 36.216 945.418 37.664 945.418 39.632V47H941.914ZM937.978 47.192C936.97 47.192 936.106 47.024 935.386 46.688C934.666 46.336 934.114 45.864 933.73 45.272C933.346 44.68 933.154 44.016 933.154 43.28C933.154 42.512 933.338 41.84 933.706 41.264C934.09 40.688 934.69 40.24 935.506 39.92C936.322 39.584 937.386 39.416 938.698 39.416H942.13V41.6H939.106C938.226 41.6 937.618 41.744 937.282 42.032C936.962 42.32 936.802 42.68 936.802 43.112C936.802 43.592 936.986 43.976 937.354 44.264C937.738 44.536 938.258 44.672 938.914 44.672C939.538 44.672 940.098 44.528 940.594 44.24C941.09 43.936 941.45 43.496 941.674 42.92L942.25 44.648C941.978 45.48 941.482 46.112 940.762 46.544C940.042 46.976 939.114 47.192 937.978 47.192ZM948.806 47V34.088H952.382V37.736L951.878 36.68C952.262 35.768 952.878 35.08 953.726 34.616C954.574 34.136 955.606 33.896 956.822 33.896V37.352C956.662 37.336 956.518 37.328 956.39 37.328C956.262 37.312 956.126 37.304 955.982 37.304C954.958 37.304 954.126 37.6 953.486 38.192C952.862 38.768 952.55 39.672 952.55 40.904V47H948.806ZM965.195 47.192C963.803 47.192 962.563 46.912 961.475 46.352C960.387 45.776 959.531 44.984 958.907 43.976C958.299 42.968 957.995 41.824 957.995 40.544C957.995 39.248 958.299 38.104 958.907 37.112C959.531 36.104 960.387 35.32 961.475 34.76C962.563 34.184 963.803 33.896 965.195 33.896C966.555 33.896 967.739 34.184 968.747 34.76C969.755 35.32 970.499 36.128 970.979 37.184L968.075 38.744C967.739 38.136 967.315 37.688 966.803 37.4C966.307 37.112 965.763 36.968 965.171 36.968C964.531 36.968 963.955 37.112 963.443 37.4C962.931 37.688 962.523 38.096 962.219 38.624C961.931 39.152 961.787 39.792 961.787 40.544C961.787 41.296 961.931 41.936 962.219 42.464C962.523 42.992 962.931 43.4 963.443 43.688C963.955 43.976 964.531 44.12 965.171 44.12C965.763 44.12 966.307 43.984 966.803 43.712C967.315 43.424 967.739 42.968 968.075 42.344L970.979 43.928C970.499 44.968 969.755 45.776 968.747 46.352C967.739 46.912 966.555 47.192 965.195 47.192ZM980.912 33.896C981.936 33.896 982.848 34.104 983.648 34.52C984.464 34.92 985.104 35.544 985.568 36.392C986.032 37.224 986.264 38.296 986.264 39.608V47H982.52V40.184C982.52 39.144 982.288 38.376 981.824 37.88C981.376 37.384 980.736 37.136 979.904 37.136C979.312 37.136 978.776 37.264 978.296 37.52C977.832 37.76 977.464 38.136 977.192 38.648C976.936 39.16 976.808 39.816 976.808 40.616V47H973.064V29.192H976.808V37.664L975.968 36.584C976.432 35.72 977.096 35.056 977.96 34.592C978.824 34.128 979.808 33.896 980.912 33.896Z" fill="white"/>
<path d="M1016 26.5L1019.24 35.2589L1028 38.5L1019.24 41.7411L1016 50.5L1012.76 41.7411L1004 38.5L1012.76 35.2589L1016 26.5Z" fill="white"/>
<path d="M1045.99 47V30.2H1053.26C1054.77 30.2 1056.06 30.448 1057.15 30.944C1058.24 31.424 1059.08 32.12 1059.67 33.032C1060.26 33.944 1060.56 35.032 1060.56 36.296C1060.56 37.544 1060.26 38.624 1059.67 39.536C1059.08 40.448 1058.24 41.152 1057.15 41.648C1056.06 42.128 1054.77 42.368 1053.26 42.368H1048.15L1049.88 40.616V47H1045.99ZM1049.88 41.048L1048.15 39.2H1053.05C1054.25 39.2 1055.14 38.944 1055.74 38.432C1056.33 37.92 1056.62 37.208 1056.62 36.296C1056.62 35.368 1056.33 34.648 1055.74 34.136C1055.14 33.624 1054.25 33.368 1053.05 33.368H1048.15L1049.88 31.52V41.048ZM1063.05 47V34.088H1066.62V37.736L1066.12 36.68C1066.5 35.768 1067.12 35.08 1067.97 34.616C1068.82 34.136 1069.85 33.896 1071.06 33.896V37.352C1070.9 37.336 1070.76 37.328 1070.63 37.328C1070.5 37.312 1070.37 37.304 1070.22 37.304C1069.2 37.304 1068.37 37.6 1067.73 38.192C1067.1 38.768 1066.79 39.672 1066.79 40.904V47H1063.05ZM1079.34 47.192C1077.96 47.192 1076.74 46.904 1075.67 46.328C1074.61 45.752 1073.77 44.968 1073.15 43.976C1072.54 42.968 1072.24 41.824 1072.24 40.544C1072.24 39.248 1072.54 38.104 1073.15 37.112C1073.77 36.104 1074.61 35.32 1075.67 34.76C1076.74 34.184 1077.96 33.896 1079.34 33.896C1080.7 33.896 1081.92 34.184 1082.99 34.76C1084.06 35.32 1084.9 36.096 1085.51 37.088C1086.12 38.08 1086.42 39.232 1086.42 40.544C1086.42 41.824 1086.12 42.968 1085.51 43.976C1084.9 44.968 1084.06 45.752 1082.99 46.328C1081.92 46.904 1080.7 47.192 1079.34 47.192ZM1079.34 44.12C1079.96 44.12 1080.52 43.976 1081.02 43.688C1081.52 43.4 1081.91 42.992 1082.2 42.464C1082.48 41.92 1082.63 41.28 1082.63 40.544C1082.63 39.792 1082.48 39.152 1082.2 38.624C1081.91 38.096 1081.52 37.688 1081.02 37.4C1080.52 37.112 1079.96 36.968 1079.34 36.968C1078.72 36.968 1078.16 37.112 1077.66 37.4C1077.16 37.688 1076.76 38.096 1076.46 38.624C1076.17 39.152 1076.03 39.792 1076.03 40.544C1076.03 41.28 1076.17 41.92 1076.46 42.464C1076.76 42.992 1077.16 43.4 1077.66 43.688C1078.16 43.976 1078.72 44.12 1079.34 44.12ZM1094.2 47.192C1092.68 47.192 1091.5 46.808 1090.65 46.04C1089.8 45.256 1089.38 44.096 1089.38 42.56V31.232H1093.12V42.512C1093.12 43.056 1093.27 43.48 1093.56 43.784C1093.84 44.072 1094.24 44.216 1094.73 44.216C1095.32 44.216 1095.83 44.056 1096.24 43.736L1097.25 46.376C1096.87 46.648 1096.4 46.856 1095.86 47C1095.33 47.128 1094.78 47.192 1094.2 47.192ZM1087.39 37.256V34.376H1096.34V37.256H1087.39ZM1105.1 47.192C1103.72 47.192 1102.5 46.904 1101.43 46.328C1100.37 45.752 1099.53 44.968 1098.91 43.976C1098.3 42.968 1097.99 41.824 1097.99 40.544C1097.99 39.248 1098.3 38.104 1098.91 37.112C1099.53 36.104 1100.37 35.32 1101.43 34.76C1102.5 34.184 1103.72 33.896 1105.1 33.896C1106.46 33.896 1107.67 34.184 1108.75 34.76C1109.82 35.32 1110.66 36.096 1111.27 37.088C1111.87 38.08 1112.18 39.232 1112.18 40.544C1112.18 41.824 1111.87 42.968 1111.27 43.976C1110.66 44.968 1109.82 45.752 1108.75 46.328C1107.67 46.904 1106.46 47.192 1105.1 47.192ZM1105.1 44.12C1105.72 44.12 1106.28 43.976 1106.78 43.688C1107.27 43.4 1107.67 42.992 1107.95 42.464C1108.24 41.92 1108.39 41.28 1108.39 40.544C1108.39 39.792 1108.24 39.152 1107.95 38.624C1107.67 38.096 1107.27 37.688 1106.78 37.4C1106.28 37.112 1105.72 36.968 1105.1 36.968C1104.47 36.968 1103.91 37.112 1103.42 37.4C1102.92 37.688 1102.52 38.096 1102.22 38.624C1101.93 39.152 1101.79 39.792 1101.79 40.544C1101.79 41.28 1101.93 41.92 1102.22 42.464C1102.52 42.992 1102.92 43.4 1103.42 43.688C1103.91 43.976 1104.47 44.12 1105.1 44.12ZM1119.96 47.192C1118.44 47.192 1117.26 46.808 1116.41 46.04C1115.56 45.256 1115.14 44.096 1115.14 42.56V31.232H1118.88V42.512C1118.88 43.056 1119.03 43.48 1119.31 43.784C1119.6 44.072 1119.99 44.216 1120.49 44.216C1121.08 44.216 1121.59 44.056 1122 43.736L1123.01 46.376C1122.63 46.648 1122.16 46.856 1121.62 47C1121.09 47.128 1120.54 47.192 1119.96 47.192ZM1113.15 37.256V34.376H1122.1V37.256H1113.15ZM1126.51 51.848C1125.84 51.848 1125.17 51.744 1124.52 51.536C1123.86 51.328 1123.32 51.04 1122.91 50.672L1124.28 48.008C1124.56 48.264 1124.89 48.464 1125.26 48.608C1125.64 48.752 1126.02 48.824 1126.39 48.824C1126.92 48.824 1127.33 48.696 1127.64 48.44C1127.96 48.2 1128.24 47.792 1128.5 47.216L1129.17 45.632L1129.46 45.224L1134.09 34.088H1137.69L1131.86 47.792C1131.44 48.832 1130.96 49.648 1130.42 50.24C1129.89 50.832 1129.3 51.248 1128.64 51.488C1128 51.728 1127.29 51.848 1126.51 51.848ZM1128.72 47.504L1122.96 34.088H1126.82L1131.28 44.888L1128.72 47.504ZM1146.85 47.192C1145.76 47.192 1144.81 46.952 1144 46.472C1143.18 45.992 1142.54 45.264 1142.08 44.288C1141.63 43.296 1141.4 42.048 1141.4 40.544C1141.4 39.024 1141.62 37.776 1142.05 36.8C1142.48 35.824 1143.11 35.096 1143.92 34.616C1144.74 34.136 1145.72 33.896 1146.85 33.896C1148.07 33.896 1149.16 34.176 1150.12 34.736C1151.09 35.28 1151.86 36.048 1152.42 37.04C1153 38.032 1153.28 39.2 1153.28 40.544C1153.28 41.904 1153 43.08 1152.42 44.072C1151.86 45.064 1151.09 45.832 1150.12 46.376C1149.16 46.92 1148.07 47.192 1146.85 47.192ZM1139.22 51.656V34.088H1142.8V36.728L1142.72 40.568L1142.96 44.384V51.656H1139.22ZM1146.2 44.12C1146.83 44.12 1147.38 43.976 1147.86 43.688C1148.36 43.4 1148.75 42.992 1149.04 42.464C1149.34 41.92 1149.49 41.28 1149.49 40.544C1149.49 39.792 1149.34 39.152 1149.04 38.624C1148.75 38.096 1148.36 37.688 1147.86 37.4C1147.38 37.112 1146.83 36.968 1146.2 36.968C1145.58 36.968 1145.02 37.112 1144.52 37.4C1144.03 37.688 1143.64 38.096 1143.35 38.624C1143.06 39.152 1142.92 39.792 1142.92 40.544C1142.92 41.28 1143.06 41.92 1143.35 42.464C1143.64 42.992 1144.03 43.4 1144.52 43.688C1145.02 43.976 1145.58 44.12 1146.2 44.12ZM1162.2 47.192C1160.73 47.192 1159.43 46.904 1158.31 46.328C1157.21 45.752 1156.35 44.968 1155.74 43.976C1155.13 42.968 1154.83 41.824 1154.83 40.544C1154.83 39.248 1155.13 38.104 1155.72 37.112C1156.33 36.104 1157.15 35.32 1158.19 34.76C1159.23 34.184 1160.41 33.896 1161.72 33.896C1162.98 33.896 1164.12 34.168 1165.13 34.712C1166.15 35.24 1166.96 36.008 1167.55 37.016C1168.14 38.008 1168.44 39.2 1168.44 40.592C1168.44 40.736 1168.43 40.904 1168.41 41.096C1168.4 41.272 1168.38 41.44 1168.37 41.6H1157.88V39.416H1166.4L1164.96 40.064C1164.96 39.392 1164.82 38.808 1164.55 38.312C1164.28 37.816 1163.9 37.432 1163.42 37.16C1162.94 36.872 1162.38 36.728 1161.74 36.728C1161.1 36.728 1160.53 36.872 1160.04 37.16C1159.56 37.432 1159.18 37.824 1158.91 38.336C1158.64 38.832 1158.5 39.424 1158.5 40.112V40.688C1158.5 41.392 1158.65 42.016 1158.96 42.56C1159.28 43.088 1159.72 43.496 1160.28 43.784C1160.85 44.056 1161.53 44.192 1162.29 44.192C1162.98 44.192 1163.58 44.088 1164.09 43.88C1164.62 43.672 1165.1 43.36 1165.53 42.944L1167.53 45.104C1166.93 45.776 1166.19 46.296 1165.29 46.664C1164.4 47.016 1163.37 47.192 1162.2 47.192Z" fill="white"/>
<path d="M1198 26.5L1201.24 35.2589L1210 38.5L1201.24 41.7411L1198 50.5L1194.76 41.7411L1186 38.5L1194.76 35.2589L1198 26.5Z" fill="white"/>
<path d="M1232.02 47L1226.53 30.2H1230.56L1235.34 45.08H1233.32L1238.31 30.2H1241.91L1246.71 45.08H1244.77L1249.66 30.2H1253.38L1247.89 47H1243.71L1239.46 33.944H1240.57L1236.2 47H1232.02ZM1260.74 47.192C1259.27 47.192 1257.97 46.904 1256.85 46.328C1255.75 45.752 1254.89 44.968 1254.28 43.976C1253.67 42.968 1253.37 41.824 1253.37 40.544C1253.37 39.248 1253.67 38.104 1254.26 37.112C1254.87 36.104 1255.69 35.32 1256.73 34.76C1257.77 34.184 1258.95 33.896 1260.26 33.896C1261.52 33.896 1262.66 34.168 1263.67 34.712C1264.69 35.24 1265.5 36.008 1266.09 37.016C1266.68 38.008 1266.98 39.2 1266.98 40.592C1266.98 40.736 1266.97 40.904 1266.95 41.096C1266.94 41.272 1266.92 41.44 1266.91 41.6H1256.42V39.416H1264.94L1263.5 40.064C1263.5 39.392 1263.36 38.808 1263.09 38.312C1262.82 37.816 1262.44 37.432 1261.96 37.16C1261.48 36.872 1260.92 36.728 1260.28 36.728C1259.64 36.728 1259.07 36.872 1258.58 37.16C1258.1 37.432 1257.72 37.824 1257.45 38.336C1257.18 38.832 1257.04 39.424 1257.04 40.112V40.688C1257.04 41.392 1257.19 42.016 1257.5 42.56C1257.82 43.088 1258.26 43.496 1258.82 43.784C1259.39 44.056 1260.07 44.192 1260.83 44.192C1261.52 44.192 1262.12 44.088 1262.63 43.88C1263.16 43.672 1263.64 43.36 1264.07 42.944L1266.07 45.104C1265.47 45.776 1264.73 46.296 1263.83 46.664C1262.94 47.016 1261.91 47.192 1260.74 47.192ZM1277.1 47.192C1275.97 47.192 1274.99 46.952 1274.17 46.472C1273.36 45.992 1272.73 45.264 1272.3 44.288C1271.87 43.296 1271.65 42.048 1271.65 40.544C1271.65 39.024 1271.88 37.776 1272.33 36.8C1272.79 35.824 1273.43 35.096 1274.25 34.616C1275.06 34.136 1276.01 33.896 1277.1 33.896C1278.32 33.896 1279.41 34.168 1280.37 34.712C1281.34 35.256 1282.11 36.024 1282.67 37.016C1283.25 38.008 1283.53 39.184 1283.53 40.544C1283.53 41.888 1283.25 43.056 1282.67 44.048C1282.11 45.04 1281.34 45.816 1280.37 46.376C1279.41 46.92 1278.32 47.192 1277.1 47.192ZM1269.47 47V29.192H1273.21V36.704L1272.97 40.52L1273.05 44.36V47H1269.47ZM1276.45 44.12C1277.08 44.12 1277.63 43.976 1278.11 43.688C1278.61 43.4 1279 42.992 1279.29 42.464C1279.59 41.92 1279.74 41.28 1279.74 40.544C1279.74 39.792 1279.59 39.152 1279.29 38.624C1279 38.096 1278.61 37.688 1278.11 37.4C1277.63 37.112 1277.08 36.968 1276.45 36.968C1275.83 36.968 1275.27 37.112 1274.77 37.4C1274.28 37.688 1273.89 38.096 1273.6 38.624C1273.31 39.152 1273.17 39.792 1273.17 40.544C1273.17 41.28 1273.31 41.92 1273.6 42.464C1273.89 42.992 1274.28 43.4 1274.77 43.688C1275.27 43.976 1275.83 44.12 1276.45 44.12ZM1293.1 47V30.2H1300.73C1302.56 30.2 1304.17 30.552 1305.56 31.256C1306.95 31.944 1308.04 32.912 1308.82 34.16C1309.61 35.408 1310 36.888 1310 38.6C1310 40.296 1309.61 41.776 1308.82 43.04C1308.04 44.288 1306.95 45.264 1305.56 45.968C1304.17 46.656 1302.56 47 1300.73 47H1293.1ZM1296.99 43.808H1300.54C1301.66 43.808 1302.63 43.6 1303.45 43.184C1304.28 42.752 1304.92 42.144 1305.37 41.36C1305.83 40.576 1306.06 39.656 1306.06 38.6C1306.06 37.528 1305.83 36.608 1305.37 35.84C1304.92 35.056 1304.28 34.456 1303.45 34.04C1302.63 33.608 1301.66 33.392 1300.54 33.392H1296.99V43.808ZM1319.07 47.192C1317.6 47.192 1316.31 46.904 1315.19 46.328C1314.08 45.752 1313.23 44.968 1312.62 43.976C1312.01 42.968 1311.71 41.824 1311.71 40.544C1311.71 39.248 1312 38.104 1312.59 37.112C1313.2 36.104 1314.03 35.32 1315.07 34.76C1316.11 34.184 1317.28 33.896 1318.59 33.896C1319.86 33.896 1320.99 34.168 1322 34.712C1323.03 35.24 1323.83 36.008 1324.43 37.016C1325.02 38.008 1325.31 39.2 1325.31 40.592C1325.31 40.736 1325.31 40.904 1325.29 41.096C1325.27 41.272 1325.26 41.44 1325.24 41.6H1314.75V39.416H1323.27L1321.83 40.064C1321.83 39.392 1321.7 38.808 1321.43 38.312C1321.15 37.816 1320.78 37.432 1320.3 37.16C1319.82 36.872 1319.26 36.728 1318.62 36.728C1317.98 36.728 1317.41 36.872 1316.91 37.16C1316.43 37.432 1316.06 37.824 1315.79 38.336C1315.51 38.832 1315.38 39.424 1315.38 40.112V40.688C1315.38 41.392 1315.53 42.016 1315.83 42.56C1316.15 43.088 1316.59 43.496 1317.15 43.784C1317.73 44.056 1318.4 44.192 1319.17 44.192C1319.86 44.192 1320.46 44.088 1320.97 43.88C1321.5 43.672 1321.98 43.36 1322.41 42.944L1324.4 45.104C1323.81 45.776 1323.07 46.296 1322.17 46.664C1321.27 47.016 1320.24 47.192 1319.07 47.192ZM1332.15 47.192C1331.05 47.192 1329.98 47.064 1328.96 46.808C1327.95 46.536 1327.15 46.2 1326.56 45.8L1327.81 43.112C1328.4 43.48 1329.09 43.784 1329.89 44.024C1330.71 44.248 1331.51 44.36 1332.29 44.36C1333.16 44.36 1333.77 44.256 1334.12 44.048C1334.49 43.84 1334.67 43.552 1334.67 43.184C1334.67 42.88 1334.53 42.656 1334.24 42.512C1333.97 42.352 1333.6 42.232 1333.13 42.152C1332.67 42.072 1332.16 41.992 1331.6 41.912C1331.05 41.832 1330.5 41.728 1329.94 41.6C1329.38 41.456 1328.87 41.248 1328.41 40.976C1327.94 40.704 1327.57 40.336 1327.28 39.872C1327.01 39.408 1326.87 38.808 1326.87 38.072C1326.87 37.256 1327.1 36.536 1327.57 35.912C1328.05 35.288 1328.73 34.8 1329.63 34.448C1330.53 34.08 1331.6 33.896 1332.85 33.896C1333.73 33.896 1334.62 33.992 1335.53 34.184C1336.45 34.376 1337.21 34.656 1337.81 35.024L1336.57 37.688C1335.94 37.32 1335.31 37.072 1334.67 36.944C1334.05 36.8 1333.44 36.728 1332.85 36.728C1332.01 36.728 1331.41 36.84 1331.02 37.064C1330.64 37.288 1330.45 37.576 1330.45 37.928C1330.45 38.248 1330.58 38.488 1330.85 38.648C1331.14 38.808 1331.52 38.936 1331.98 39.032C1332.45 39.128 1332.95 39.216 1333.49 39.296C1334.05 39.36 1334.61 39.464 1335.17 39.608C1335.73 39.752 1336.24 39.96 1336.69 40.232C1337.15 40.488 1337.53 40.848 1337.81 41.312C1338.1 41.76 1338.25 42.352 1338.25 43.088C1338.25 43.888 1338.01 44.6 1337.53 45.224C1337.05 45.832 1336.35 46.312 1335.44 46.664C1334.54 47.016 1333.45 47.192 1332.15 47.192ZM1340.56 47V34.088H1344.3V47H1340.56ZM1342.43 32.288C1341.74 32.288 1341.18 32.088 1340.75 31.688C1340.32 31.288 1340.1 30.792 1340.1 30.2C1340.1 29.608 1340.32 29.112 1340.75 28.712C1341.18 28.312 1341.74 28.112 1342.43 28.112C1343.12 28.112 1343.68 28.304 1344.11 28.688C1344.54 29.056 1344.76 29.536 1344.76 30.128C1344.76 30.752 1344.54 31.272 1344.11 31.688C1343.69 32.088 1343.13 32.288 1342.43 32.288ZM1353.85 51.848C1352.63 51.848 1351.45 51.696 1350.32 51.392C1349.2 51.104 1348.26 50.664 1347.51 50.072L1349 47.384C1349.54 47.832 1350.23 48.184 1351.06 48.44C1351.91 48.712 1352.74 48.848 1353.56 48.848C1354.89 48.848 1355.85 48.552 1356.44 47.96C1357.05 47.368 1357.35 46.488 1357.35 45.32V43.376L1357.59 40.136L1357.54 36.872V34.088H1361.09V44.84C1361.09 47.24 1360.47 49.008 1359.22 50.144C1357.97 51.28 1356.18 51.848 1353.85 51.848ZM1353.27 46.376C1352.07 46.376 1350.98 46.12 1350.01 45.608C1349.05 45.08 1348.27 44.352 1347.68 43.424C1347.1 42.48 1346.81 41.384 1346.81 40.136C1346.81 38.872 1347.1 37.776 1347.68 36.848C1348.27 35.904 1349.05 35.176 1350.01 34.664C1350.98 34.152 1352.07 33.896 1353.27 33.896C1354.36 33.896 1355.32 34.12 1356.15 34.568C1356.98 35 1357.63 35.68 1358.09 36.608C1358.56 37.52 1358.79 38.696 1358.79 40.136C1358.79 41.56 1358.56 42.736 1358.09 43.664C1357.63 44.576 1356.98 45.256 1356.15 45.704C1355.32 46.152 1354.36 46.376 1353.27 46.376ZM1354.01 43.304C1354.67 43.304 1355.25 43.176 1355.77 42.92C1356.28 42.648 1356.68 42.272 1356.97 41.792C1357.25 41.312 1357.4 40.76 1357.4 40.136C1357.4 39.496 1357.25 38.944 1356.97 38.48C1356.68 38 1356.28 37.632 1355.77 37.376C1355.25 37.104 1354.67 36.968 1354.01 36.968C1353.36 36.968 1352.77 37.104 1352.26 37.376C1351.75 37.632 1351.34 38 1351.04 38.48C1350.75 38.944 1350.61 39.496 1350.61 40.136C1350.61 40.76 1350.75 41.312 1351.04 41.792C1351.34 42.272 1351.75 42.648 1352.26 42.92C1352.77 43.176 1353.36 43.304 1354.01 43.304ZM1372.43 33.896C1373.45 33.896 1374.36 34.104 1375.16 34.52C1375.98 34.92 1376.62 35.544 1377.08 36.392C1377.55 37.224 1377.78 38.296 1377.78 39.608V47H1374.04V40.184C1374.04 39.144 1373.8 38.376 1373.34 37.88C1372.89 37.384 1372.25 37.136 1371.42 37.136C1370.83 37.136 1370.29 37.264 1369.81 37.52C1369.35 37.76 1368.98 38.136 1368.71 38.648C1368.45 39.16 1368.32 39.816 1368.32 40.616V47H1364.58V34.088H1368.16V37.664L1367.48 36.584C1367.95 35.72 1368.61 35.056 1369.48 34.592C1370.34 34.128 1371.32 33.896 1372.43 33.896Z" fill="white"/>
<path d="M1408 26.5L1411.24 35.2589L1420 38.5L1411.24 41.7411L1408 50.5L1404.76 41.7411L1396 38.5L1404.76 35.2589L1408 26.5Z" fill="white"/>
</svg>
